<svg width="1440" height="807" viewBox="0 0 1440 807" fill="none" xmlns="http://www.w3.org/2000/svg">
<path d="M1440.42 0L1441 806.216L0 807V0H1440.42Z" fill="#FFC107"/>
<path d="M1440.42 0L1441 806.216L0 807V0H1440.42Z" fill="#FFC107"/>
<path d="M1440.42 0L1441 806.216L0 807V0H1440.42Z" fill="#FFC107"/>
<path d="M1440.42 0L1441 806.216L0 807V0H1440.42Z" fill="#FFC107"/>
<path d="M1440.1 0L1441 807H234L544.84 0H1440.1Z" fill="white" fill-opacity="0.15"/>
<path d="M1440.1 0L1441 807H234L544.84 0H1440.1Z" fill="white" fill-opacity="0.15"/>
<path d="M1440.1 0L1441 807H234L544.84 0H1440.1Z" fill="white" fill-opacity="0.15"/>
<path d="M1441.2 0L1441.48 806.216L754 807L1042.39 3.92128L1441.2 0Z" fill="white" fill-opacity="0.05"/>
<path d="M1441.2 0L1441.48 806.216L754 807L1042.39 3.92128L1441.2 0Z" fill="white" fill-opacity="0.05"/>
<path d="M1441.2 0L1441.48 806.216L754 807L1042.39 3.92128L1441.2 0Z" fill="white" fill-opacity="0.05"/>
<path d="M1441.2 0L1441.48 806.216L754 807L1042.39 3.92128L1441.2 0Z" fill="white" fill-opacity="0.05"/>
</svg>
