<svg width="20" height="20" viewBox="0 0 20 20" fill="none" xmlns="http://www.w3.org/2000/svg">
<path d="M13.125 10.625H6.875C6.53 10.625 6.25 10.905 6.25 11.25C6.25 11.595 6.53 11.875 6.875 11.875H13.125C13.47 11.875 13.75 11.595 13.75 11.25C13.75 10.905 13.47 10.625 13.125 10.625ZM14.375 6.875H5.625C5.28 6.875 5 7.155 5 7.5C5 7.845 5.28 8.125 5.625 8.125H14.375C14.72 8.125 15 7.845 15 7.5C15 7.155 14.72 6.875 14.375 6.875ZM10 0C4.47752 0 0 3.91748 0 8.75C0 11.5119 1.46562 13.9706 3.75 15.5744V20L8.13062 17.3419C8.7369 17.4419 9.36062 17.5 10 17.5C15.5231 17.5 20 13.5825 20 8.75C20 3.91748 15.5231 0 10 0ZM10 16.25C9.27 16.25 8.565 16.165 7.88748 16.0206L4.94497 17.7893L4.98435 14.8906C2.72876 13.5338 1.25 11.2913 1.25 8.75C1.25 4.60814 5.16748 1.25 10 1.25C14.8325 1.25 18.75 4.60814 18.75 8.75C18.75 12.8919 14.8325 16.25 10 16.25Z" fill="black"/>
</svg>
