<svg width="15" height="27" viewBox="0 0 15 27" fill="none" xmlns="http://www.w3.org/2000/svg">
<path d="M11.5383 5.19226H14.4229C14.7414 5.19226 14.9998 4.9338 14.9998 4.61534V0.728647C14.9998 0.426342 14.7674 0.174806 14.4662 0.15346C13.5483 0.0882684 11.7553 0 10.4659 0C6.92301 0 4.61534 2.12306 4.61534 5.98148V9.80759H0.576917C0.258459 9.80759 0 10.0661 0 10.3845V14.4229C0 14.7414 0.258459 14.9998 0.576917 14.9998H4.61534V25.9613C4.61534 26.2797 4.8738 26.5382 5.19226 26.5382H9.23068C9.54913 26.5382 9.80759 26.2797 9.80759 25.9613V14.9998H13.9741C14.2683 14.9998 14.5152 14.7789 14.5475 14.4864L14.9964 10.448C15.0345 10.1064 14.7668 9.80759 14.4229 9.80759H9.80759V6.92301C9.80759 5.96706 10.5824 5.19226 11.5383 5.19226Z" fill="black"/>
</svg>
