<svg width="24" height="20" viewBox="0 0 24 20" fill="none" xmlns="http://www.w3.org/2000/svg">
<path fill-rule="evenodd" clip-rule="evenodd" d="M24 2.309C23.1014 2.70727 22.1481 2.96851 21.172 3.084C22.2006 2.46918 22.9702 1.50088 23.337 0.360004C22.3704 0.933589 21.3128 1.33774 20.21 1.555C19.7494 1.0634 19.1928 0.671694 18.5745 0.404198C17.9563 0.136702 17.2896 -0.000874915 16.616 4.18653e-06C13.437 4.18653e-06 11.101 2.966 11.819 6.045C9.86138 5.94701 7.94625 5.4384 6.19796 4.5522C4.44967 3.66599 2.9073 2.422 1.671 0.901004C1.04148 1.98505 0.848566 3.26818 1.13149 4.48941C1.41441 5.71064 2.15192 6.77822 3.194 7.475C2.41251 7.45034 1.64826 7.23913 0.965 6.859C0.911 9.14 2.546 11.274 4.914 11.749C4.18873 11.946 3.42806 11.9747 2.69 11.833C3.00451 12.8114 3.61703 13.667 4.44184 14.28C5.26665 14.8931 6.26249 15.2329 7.29 15.252C5.2262 16.8709 2.6043 17.6046 0 17.292C2.25151 18.7386 4.87183 19.5065 7.548 19.504C16.69 19.504 21.855 11.783 21.543 4.858C22.5067 4.16083 23.3387 3.2977 24 2.309Z" fill="black"/>
</svg>
