<svg width="20" height="20" viewBox="0 0 20 20" fill="none" xmlns="http://www.w3.org/2000/svg">
<path d="M9.999 1.802C12.669 1.802 12.986 1.812 14.041 1.861C16.751 1.984 18.017 3.27 18.141 5.96C18.189 7.014 18.198 7.33 18.198 10C18.198 12.672 18.188 12.988 18.14 14.042C18.016 16.729 16.754 18.017 14.041 18.141C12.986 18.189 12.671 18.199 9.999 18.199C7.329 18.199 7.013 18.189 5.959 18.141C3.242 18.017 1.983 16.725 1.859 14.041C1.811 12.987 1.801 12.671 1.801 10C1.801 7.33 1.811 7.014 1.859 5.96C1.983 3.27 3.246 1.983 5.959 1.86C7.013 1.812 7.329 1.802 9.999 1.802ZM9.999 0C7.284 0 6.944 0.012 5.877 0.06C2.245 0.227 0.226 2.242 0.06 5.877C0.011 6.944 0 7.284 0 10C0 12.716 0.011 13.057 0.06 14.123C0.226 17.755 2.241 19.773 5.876 19.94C6.944 19.988 7.284 20 9.999 20C12.715 20 13.056 19.988 14.123 19.94C17.751 19.773 19.774 17.758 19.939 14.123C19.988 13.057 19.999 12.716 19.999 10C19.999 7.284 19.988 6.944 19.939 5.878C19.776 2.249 17.759 0.228 14.124 0.06C13.056 0.01 12.715 0 9.999 0ZM9.999 4.865C8.63711 4.865 7.33101 5.40601 6.36801 6.36901C5.40501 7.33201 4.864 8.63811 4.864 10C4.864 11.3619 5.40501 12.668 6.36801 13.631C7.33101 14.594 8.63711 15.135 9.999 15.135C11.3609 15.135 12.667 14.594 13.63 13.631C14.593 12.668 15.134 11.3619 15.134 10C15.134 8.63811 14.593 7.33201 13.63 6.36901C12.667 5.40601 11.3609 4.865 9.999 4.865ZM9.999 13.333C9.11503 13.333 8.26727 12.9818 7.64221 12.3568C7.01715 11.7317 6.666 10.884 6.666 10C6.666 9.11603 7.01715 8.26827 7.64221 7.64321C8.26727 7.01815 9.11503 6.667 9.999 6.667C10.883 6.667 11.7307 7.01815 12.3558 7.64321C12.9808 8.26827 13.332 9.11603 13.332 10C13.332 10.884 12.9808 11.7317 12.3558 12.3568C11.7307 12.9818 10.883 13.333 9.999 13.333ZM15.338 3.463C15.1804 3.46293 15.0244 3.49391 14.8787 3.55415C14.7331 3.6144 14.6008 3.70273 14.4893 3.81412C14.3778 3.9255 14.2894 4.05775 14.229 4.20332C14.1687 4.34888 14.1376 4.50491 14.1375 4.6625C14.1374 4.82009 14.1684 4.97614 14.2287 5.12176C14.2889 5.26737 14.3772 5.3997 14.4886 5.51117C14.6 5.62265 14.7323 5.7111 14.8778 5.77146C15.0234 5.83183 15.1794 5.86293 15.337 5.863C15.6553 5.863 15.9605 5.73657 16.1855 5.51153C16.4106 5.28648 16.537 4.98126 16.537 4.663C16.537 4.34474 16.4106 4.03952 16.1855 3.81447C15.9605 3.58943 15.6553 3.463 15.337 3.463H15.338Z" fill="black"/>
</svg>
