<svg width="20" height="20" viewBox="0 0 20 20" fill="none" xmlns="http://www.w3.org/2000/svg">
<g clip-path="url(#clip0)">
<path d="M19.4556 14.678L16.6646 11.8869C15.6678 10.8901 13.9732 11.2889 13.5745 12.5847C13.2754 13.4819 12.2786 13.9803 11.3815 13.7809C9.38789 13.2825 6.69651 10.6908 6.19811 8.59746C5.89907 7.7003 6.49715 6.70349 7.39428 6.40448C8.69013 6.00576 9.08885 4.31119 8.09204 3.31438L5.30098 0.523324C4.50354 -0.174441 3.30737 -0.174441 2.60961 0.523324L0.715674 2.41726C-1.17826 4.41087 0.915035 9.69395 5.60003 14.3789C10.285 19.0639 15.5681 21.2569 17.5617 19.2633L19.4556 17.3694C20.1534 16.5719 20.1534 15.3757 19.4556 14.678Z" fill="#FFC107"/>
</g>
<defs>
<clipPath id="clip0">
<rect width="20" height="20" fill="white"/>
</clipPath>
</defs>
</svg>
